<svg width="18" height="12" viewBox="0 0 18 12" fill="none" xmlns="http://www.w3.org/2000/svg">
<path fill-rule="evenodd" clip-rule="evenodd" d="M5.58232 1.83341C5.52926 2.09337 5.45136 2.34829 5.34934 2.5946C5.13994 3.10012 4.83303 3.55945 4.44612 3.94636C4.05921 4.33327 3.59988 4.64018 3.09435 4.84958C2.84805 4.9516 2.59313 5.0295 2.33317 5.08256V6.9176C2.59313 6.97066 2.84805 7.04856 3.09435 7.15058C3.59987 7.35998 4.0592 7.66689 4.44612 8.0538C4.83303 8.44071 5.13994 8.90004 5.34934 9.40557C5.45136 9.65187 5.52926 9.90679 5.58232 10.1667H12.4174C12.4704 9.90679 12.5483 9.65187 12.6503 9.40557C12.8597 8.90004 13.1666 8.44071 13.5536 8.0538C13.9405 7.66689 14.3998 7.35998 14.9053 7.15058C15.1516 7.04856 15.4065 6.97066 15.6665 6.9176V5.08256C15.4065 5.0295 15.1516 4.9516 14.9053 4.84958C14.3998 4.64018 13.9405 4.33327 13.5536 3.94636C13.1666 3.55945 12.8597 3.10012 12.6503 2.5946C12.5483 2.34829 12.4704 2.09337 12.4174 1.83341H5.58232ZM2.33317 0.166748C1.4127 0.166748 0.666504 0.91294 0.666504 1.83341V10.1667C0.666504 11.0872 1.4127 11.8334 2.33317 11.8334H15.6665C16.587 11.8334 17.3332 11.0872 17.3332 10.1667V1.83341C17.3332 0.91294 16.587 0.166748 15.6665 0.166748H2.33317ZM8.99984 8.50008C10.3805 8.50008 11.4998 7.38079 11.4998 6.00008C11.4998 4.61937 10.3805 3.50008 8.99984 3.50008C7.61913 3.50008 6.49984 4.61937 6.49984 6.00008C6.49984 7.38079 7.61913 8.50008 8.99984 8.50008Z" fill="#1A0244"/>
</svg>
